<?xml version="1.0" encoding="UTF-8"?>
<svg width="140px" height="21px" viewBox="0 0 140 21" version="1.1" xmlns="http://www.w3.org/2000/svg" xmlns:xlink="http://www.w3.org/1999/xlink">
    <title>Artboard</title>
    <defs>
        <polygon id="path-1" points="0 0 10.9940144 0 10.9940144 14.5164639 0 14.5164639"></polygon>
        <polygon id="path-3" points="0 0 10.9939394 0 10.9939394 15.2381735 0 15.2381735"></polygon>
        <polygon id="path-5" points="0 0 4.40465561 0 4.40465561 4.4051806 0 4.4051806"></polygon>
    </defs>
    <g id="Artboard" stroke="none" stroke-width="1" fill="none" fill-rule="evenodd">
        <g id="Group" transform="translate(0.0001, -0.0002)">
            <g id="Logos/Upbound/Color">
                <path d="M10.9391906,8.37049563 L10.8979415,12.4564081 C10.8979415,16.3833239 7.1165225,17.1798069 5.80030071,17.1798069 C3.06285937,17.1798069 0.752158882,15.5125926 0.752158882,12.4564081 L0.752158882,8.1387506 C0.752158882,7.18327107 1.30339707,6.61028335 2.19512796,6.61028335 C3.1078584,6.61028335 3.65984657,7.18327107 3.65984657,8.1387506 L3.65984657,12.1286651 C3.65984657,13.6781319 4.4428298,14.5263637 5.80030071,14.5263637 C7.24401977,14.5263637 8.0315029,13.8048792 8.0315029,12.1286651 L8.0315029,8.37049563 C8.0315029,7.41576609 8.58274108,6.84277837 9.49547153,6.84277837 C10.3872024,6.84277837 10.9391906,7.41576609 10.9391906,8.37049563 M60.4850039,8.1385256 L60.4437548,12.4569331 C60.4437548,16.3838489 56.6623358,17.1795819 55.346864,17.1795819 C52.6094227,17.1795819 50.2979722,15.5131176 50.2979722,12.4569331 L50.2979722,8.1385256 C50.2979722,7.18379606 50.8492104,6.61080834 51.7416912,6.61080834 C52.6544217,6.61080834 53.2056599,7.18379606 53.2056599,8.1385256 L53.2056599,12.1284401 C53.2056599,13.6779069 53.9886431,14.5268887 55.346864,14.5268887 C56.7898331,14.5268887 57.5773162,13.8054042 57.5773162,12.1284401 L57.5773162,8.1385256 C57.5773162,7.18379606 58.1293044,6.61080834 59.0420348,6.61080834 C59.9337657,6.61080834 60.4850039,7.18379606 60.4850039,8.1385256 M20.9570259,11.8314465 C20.9570259,10.218231 19.9167982,9.13600423 18.43108,9.13600423 C16.9243623,9.13600423 15.8421355,10.2609801 15.8421355,11.8314465 C15.8421355,13.4019128 16.9243623,14.5268887 18.43108,14.5268887 C19.9167982,14.5268887 20.9570259,13.4229124 20.9570259,11.8314465 M23.9284622,11.8314465 C23.9284622,15.0788769 21.9755041,17.1795819 19.0258173,17.1795819 C17.688596,17.1795819 16.6063691,16.7130919 15.8841346,15.9061092 L15.8421355,15.9061092 L15.8421355,19.4505332 C15.8421355,20.4052627 15.2901474,21 14.3781669,21 C13.486436,21 12.9344478,20.4052627 12.9344478,19.4505332 L12.9344478,8.1385256 C12.9344478,7.18304608 13.486436,6.61080834 14.3781669,6.61080834 C15.1626501,6.61080834 15.6936387,7.03529924 15.820386,7.77778333 L15.8631351,7.77778333 C16.5846196,6.94980108 17.6668464,6.48331107 19.0258173,6.48331107 C21.9755041,6.48331107 23.9284622,8.58401606 23.9284622,11.8314465 M33.365435,11.8314465 C33.365435,10.218231 32.3252073,9.13600423 30.8402391,9.13600423 C29.3335214,9.13600423 28.2512946,10.2609801 28.2512946,11.8314465 C28.2512946,13.4019128 29.3335214,14.5268887 30.8402391,14.5268887 C32.3252073,14.5268887 33.365435,13.4229124 33.365435,11.8314465 M36.3368714,11.8314465 C36.3368714,15.0788769 34.3839132,17.1795819 31.4342264,17.1795819 C30.0760055,17.1795819 28.9937787,16.7130919 28.2722942,15.8641101 L28.2295451,15.8641101 C28.1020478,16.6065941 27.5710592,17.0520846 26.8075756,17.0520846 C25.8948451,17.0520846 25.3436069,16.4580973 25.3436069,15.5033678 L25.3436069,3.4908752 C25.3436069,2.53539567 25.8948451,1.9414084 26.8075756,1.9414084 C27.6993064,1.9414084 28.2512946,2.53539567 28.2512946,3.4908752 L28.2512946,7.77778333 L28.2932937,7.77778333 C28.9937787,6.94980108 30.0760055,6.48331107 31.4342264,6.48331107 C34.3839132,6.48331107 36.3368714,8.58401606 36.3368714,11.8314465 M43.2844225,14.5267387 C44.8121397,14.5267387 45.8523674,13.4235124 45.8523674,11.8312965 C45.8523674,10.218831 44.8121397,9.13585423 43.2844225,9.13585423 C41.7769548,9.13585423 40.7374771,10.218831 40.7374771,11.8312965 C40.7374771,13.4235124 41.7769548,14.5267387 43.2844225,14.5267387 M43.2844225,6.48316108 C46.573852,6.48316108 48.8238038,8.64761469 48.8238038,11.8312965 C48.8238038,14.9939787 46.573852,17.1794319 43.2844225,17.1794319 C40.0159925,17.1794319 37.7667907,14.9939787 37.7667907,11.8312965 C37.7667907,8.64761469 40.0159925,6.48316108 43.2844225,6.48316108 M72.6787676,11.1946351 L72.6787676,15.5032928 C72.6787676,16.4580223 72.1275294,17.0520096 71.214799,17.0520096 C70.3230681,17.0520096 69.7718299,16.4580223 69.7718299,15.5032928 L69.7718299,11.5343778 C69.7718299,9.96391149 69.0495954,9.13592923 67.6493754,9.13592923 C66.1846568,9.13592923 65.3356749,10.1334079 65.3356749,11.8103719 L65.3356749,15.5032928 C65.3356749,16.4580223 64.7844368,17.0520096 63.8717063,17.0520096 C62.9799754,17.0520096 62.4287372,16.4580223 62.4287372,15.5032928 L62.4287372,8.15945015 C62.4287372,7.20472061 62.9799754,6.61073334 63.8717063,6.61073334 C64.63519,6.61073334 65.1661786,7.03522425 65.3154254,7.75670878 L65.3566745,7.75670878 C66.0579095,6.92872653 67.0763876,6.48323607 68.413609,6.48323607 C71.1937994,6.48323607 72.6787676,8.1384506 72.6787676,11.1946351 M82.1876638,11.8314465 C82.1876638,10.2609801 81.105437,9.13600423 79.5979693,9.13600423 C78.1122512,9.13600423 77.0727734,10.218231 77.0727734,11.8314465 C77.0727734,13.4229124 78.1122512,14.5268887 79.5979693,14.5268887 C81.105437,14.5268887 82.1876638,13.4019128 82.1876638,11.8314465 M85.0953515,3.4908752 L85.0953515,15.5033678 C85.0953515,16.4580973 84.5433634,17.0520846 83.6306329,17.0520846 C82.8663993,17.0520846 82.3354107,16.6065941 82.2086634,15.8641101 L82.1666643,15.8641101 C81.4451797,16.7130919 80.362203,17.1795819 79.0039821,17.1795819 C76.0535453,17.1795819 74.1013371,15.0788769 74.1013371,11.8314465 C74.1013371,8.58401606 76.0535453,6.48331107 79.0039821,6.48331107 C80.362203,6.48331107 81.4451797,6.94980108 82.1441648,7.77778333 L82.1876638,7.77778333 L82.1876638,3.4908752 C82.1876638,2.53539567 82.738902,1.9414084 83.6306329,1.9414084 C84.5433634,1.9414084 85.0953515,2.53539567 85.0953515,3.4908752 M4.40465561,2.2027028 C4.40465561,3.41917673 3.41917673,4.4054056 2.20195282,4.4054056 C0.985478883,4.4054056 0,3.41917673 0,2.2027028 C0,0.986228867 0.985478883,0 2.20195282,0 C3.41917673,0 4.40465561,0.986228867 4.40465561,2.2027028" id="Combined-Shape" fill="#9B5EFC"></path>
                <g id="Group-7" transform="translate(12.9344, 6.4833)">
                    <mask id="mask-2" fill="white">
                        <use xlink:href="#path-1"></use>
                    </mask>
                    <g id="Clip-6"></g>
                </g>
                <g id="Group-16" transform="translate(74.1013, 1.9414)">
                    <mask id="mask-4" fill="white">
                        <use xlink:href="#path-3"></use>
                    </mask>
                    <g id="Clip-15"></g>
                </g>
                <g id="Group-19" transform="translate(0, 0.0002)">
                    <mask id="mask-6" fill="white">
                        <use xlink:href="#path-5"></use>
                    </mask>
                    <g id="Clip-18"></g>
                </g>
            </g>
            <g id="Docs" transform="translate(91.9469, 2.8052)" fill="#FFFFFF" fill-rule="nonzero">
                <path d="M1.68,0 L5.628,0 C6.846,0 7.938,0.161 8.904,0.483 C10.332,0.945 11.424,1.736 12.18,2.856 C12.95,3.99 13.335,5.383 13.335,7.035 C13.335,8.659 12.95,10.059 12.18,11.235 C11.914,11.613 11.543,12.019 11.067,12.453 C10.549,12.929 9.807,13.3175 8.841,13.6185 C7.875,13.9195 6.804,14.07 5.628,14.07 L1.68,14.07 C1.148,14.07 0.735,13.923 0.441,13.629 C0.147,13.335 0,12.922 0,12.39 L0,1.68 C0,1.148 0.147,0.735 0.441,0.441 C0.735,0.147 1.148,0 1.68,0 Z M3.129,11.214 L5.796,11.214 C7.168,11.214 8.2355,10.8465 8.9985,10.1115 C9.7615,9.3765 10.143,8.351 10.143,7.035 C10.143,5.719 9.7615,4.6935 8.9985,3.9585 C8.2355,3.2235 7.168,2.856 5.796,2.856 L3.129,2.856 L3.129,11.214 Z" id="Shape"></path>
                <path d="M14.784,9.03 C14.784,8.232 14.952,7.434 15.288,6.636 C15.61,5.838 16.233,5.145 17.157,4.557 C18.081,3.969 19.11,3.696 20.244,3.738 C21.896,3.738 23.212,4.228 24.192,5.208 C24.64,5.67 24.983,6.16 25.221,6.678 C25.459,7.196 25.5955,7.5845 25.6305,7.8435 C25.6655,8.1025 25.697,8.498 25.725,9.03 C25.725,9.8 25.557,10.598 25.221,11.424 C24.899,12.208 24.2725,12.8975 23.3415,13.4925 C22.4105,14.0875 21.378,14.364 20.244,14.322 C18.662,14.322 17.346,13.832 16.296,12.852 C15.806,12.362 15.47,11.886 15.288,11.424 C14.952,10.598 14.784,9.8 14.784,9.03 Z M18.417,7.098 C17.955,7.588 17.724,8.232 17.724,9.03 C17.724,9.828 17.955,10.472 18.417,10.962 C18.879,11.452 19.488,11.697 20.244,11.697 C21,11.697 21.6125,11.452 22.0815,10.962 C22.5505,10.472 22.785,9.828 22.785,9.03 C22.785,8.232 22.5505,7.588 22.0815,7.098 C21.6125,6.608 21,6.363 20.244,6.363 C19.488,6.363 18.879,6.608 18.417,7.098 Z" id="Shape"></path>
                <path d="M37.044,11.718 C37.044,12.04 36.946,12.32 36.75,12.558 C36.722,12.586 36.6485,12.6595 36.5295,12.7785 C36.4105,12.8975 36.33,12.9745 36.288,13.0095 C36.246,13.0445 36.162,13.118 36.036,13.23 C35.91,13.342 35.8085,13.4225 35.7315,13.4715 C35.6545,13.5205 35.5425,13.5905 35.3955,13.6815 C35.2485,13.7725 35.1155,13.839 34.9965,13.881 C34.8775,13.923 34.727,13.9755 34.545,14.0385 C34.363,14.1015 34.1775,14.147 33.9885,14.175 C33.7995,14.203 33.586,14.231 33.348,14.259 C33.11,14.287 32.865,14.308 32.613,14.322 C31.031,14.322 29.715,13.832 28.665,12.852 C28.175,12.362 27.839,11.886 27.657,11.424 C27.321,10.598 27.153,9.8 27.153,9.03 C27.153,8.232 27.321,7.434 27.657,6.636 C27.979,5.838 28.602,5.145 29.526,4.557 C30.45,3.969 31.479,3.696 32.613,3.738 C34.125,3.738 35.392,4.207 36.414,5.145 C36.694,5.425 36.834,5.754 36.834,6.132 C36.834,6.538 36.715,6.86 36.477,7.098 C36.239,7.336 35.917,7.455 35.511,7.455 C35.175,7.455 34.881,7.35 34.629,7.14 C34.027,6.622 33.355,6.363 32.613,6.363 C31.857,6.363 31.248,6.608 30.786,7.098 C30.324,7.588 30.093,8.232 30.093,9.03 C30.093,9.828 30.324,10.472 30.786,10.962 C31.248,11.452 31.857,11.697 32.613,11.697 C33.453,11.697 34.153,11.396 34.713,10.794 C34.993,10.514 35.315,10.374 35.679,10.374 C36.099,10.374 36.4315,10.4965 36.6765,10.7415 C36.9215,10.9865 37.044,11.312 37.044,11.718 Z" id="Path"></path>
                <path d="M41.244,7.119 C41.23,7.371 41.377,7.553 41.685,7.665 C41.993,7.777 42.518,7.833 43.26,7.833 C44.828,7.833 45.9585,8.092 46.6515,8.61 C47.3445,9.128 47.691,9.926 47.691,11.004 C47.691,12.04 47.2955,12.852 46.5045,13.44 C45.7135,14.028 44.632,14.322 43.26,14.322 C42.154,14.322 41.265,14.238 40.593,14.07 C39.921,13.902 39.319,13.608 38.787,13.188 C38.493,12.964 38.332,12.635 38.304,12.201 C38.304,11.809 38.4195,11.494 38.6505,11.256 C38.8815,11.018 39.186,10.899 39.564,10.899 C39.928,10.899 40.243,11.011 40.509,11.235 C41.153,11.655 41.993,11.865 43.029,11.865 C44.247,11.865 44.856,11.557 44.856,10.941 C44.87,10.675 44.7195,10.479 44.4045,10.353 C44.0895,10.227 43.54,10.164 42.756,10.164 C41.216,10.164 40.1065,9.9155 39.4275,9.4185 C38.7485,8.9215 38.409,8.148 38.409,7.098 C38.409,6.062 38.8045,5.243 39.5955,4.641 C40.3865,4.039 41.475,3.738 42.861,3.738 C44.555,3.738 45.822,4.046 46.662,4.662 C47.054,4.956 47.25,5.313 47.25,5.733 C47.25,6.125 47.131,6.44 46.893,6.678 C46.655,6.916 46.347,7.035 45.969,7.035 C45.605,7.007 45.297,6.902 45.045,6.72 C44.499,6.37 43.841,6.195 43.071,6.195 C42.497,6.195 42.049,6.279 41.727,6.447 C41.405,6.615 41.244,6.839 41.244,7.119 Z" id="Path"></path>
            </g>
        </g>
    </g>
</svg>