<?xml version="1.0" encoding="UTF-8" standalone="no"?>
<svg
   xmlns:dc="http://purl.org/dc/elements/1.1/"
   xmlns:cc="http://creativecommons.org/ns#"
   xmlns:rdf="http://www.w3.org/1999/02/22-rdf-syntax-ns#"
   xmlns:svg="http://www.w3.org/2000/svg"
   xmlns="http://www.w3.org/2000/svg"
   viewBox="0 0 213.62267 213.62267"
   height="213.62267"
   width="213.62267"
   xml:space="preserve"
   id="svg2"
   version="1.1"><metadata
     id="metadata8"><rdf:RDF><cc:Work
         rdf:about=""><dc:format>image/svg+xml</dc:format><dc:type
           rdf:resource="http://purl.org/dc/dcmitype/StillImage" /></cc:Work></rdf:RDF></metadata><defs
     id="defs6"><clipPath
       id="clipPath18"
       clipPathUnits="userSpaceOnUse"><path
         id="path16"
         d="M 0,160.217 H 160.217 V 0 H 0 Z" /></clipPath></defs><g
     transform="matrix(1.3333333,0,0,-1.3333333,0,213.62267)"
     id="g10"><g
       id="g12"><g
         clip-path="url(#clipPath18)"
         id="g14"><g
           transform="translate(108.2327,85.0327)"
           id="g20"><path
             id="path22"
             style="fill:#ffffff;fill-opacity:1;fill-rule:nonzero;stroke:none"
             d="m 0,0 c -6.552,0 -11.26,-4.891 -11.26,-11.721 0,-6.83 4.708,-11.721 11.26,-11.721 6.46,0 10.983,4.799 10.983,11.721 C 10.983,-4.707 6.46,0 0,0" /></g><g
           transform="translate(110.8172,50.0542)"
           id="g24"><path
             id="path26"
             style="fill:#ffffff;fill-opacity:1;fill-rule:nonzero;stroke:none"
             d="m 0,0 c -5.814,0 -10.521,2.03 -13.66,5.537 h -0.184 V -9.876 c 0,-4.153 -2.399,-6.737 -6.368,-6.737 -3.876,0 -6.276,2.584 -6.276,6.737 v 49.193 c 0,4.153 2.4,6.644 6.276,6.644 3.414,0 5.723,-1.845 6.276,-5.076 h 0.184 c 3.138,3.6 7.845,5.63 13.752,5.63 12.829,0 21.32,-9.137 21.32,-23.258 C 21.32,9.137 12.829,0 0,0 M -35.345,20.538 C -35.345,3.461 -51.789,0 -57.51,0 -69.416,0 -79.467,7.248 -79.467,20.538 v 18.779 c 0,4.153 2.4,6.644 6.277,6.644 3.968,0 6.367,-2.491 6.367,-6.644 V 21.965 c 0,-6.737 3.406,-10.428 9.313,-10.428 6.275,0 9.7,3.137 9.7,10.428 v 16.343 c 0,4.153 2.4,6.645 6.368,6.645 3.876,0 6.275,-2.492 6.275,-6.645 z m -47.392,44.464 c 0,5.29 4.288,9.578 9.577,9.578 5.29,0 9.578,-4.288 9.578,-9.578 0,-5.289 -4.288,-9.577 -9.578,-9.577 -5.289,0 -9.577,4.288 -9.577,9.577 m -28.08,-115.056 H 49.4 v 160.217 h -160.217 z" /></g></g></g></g></svg>