<?xml version="1.0" standalone="no"?>
<!DOCTYPE svg PUBLIC "-//W3C//DTD SVG 20010904//EN"
 "http://www.w3.org/TR/2001/REC-SVG-20010904/DTD/svg10.dtd">
<svg version="1.0" xmlns="http://www.w3.org/2000/svg"
 width="700.000000pt" height="700.000000pt" viewBox="0 0 700.000000 700.000000"
 preserveAspectRatio="xMidYMid meet">
<metadata>
Created by potrace 1.14, written by Peter Selinger 2001-2017
</metadata>
<g transform="translate(0.000000,700.000000) scale(0.100000,-0.100000)"
fill="#000000" stroke="none">
<path d="M0 3500 l0 -3500 3500 0 3500 0 0 3500 0 3500 -3500 0 -3500 0 0
-3500z m1734 1935 c147 -31 264 -137 311 -284 27 -85 18 -217 -21 -302 -40
-84 -114 -158 -201 -201 -64 -31 -73 -33 -178 -33 -104 0 -114 2 -178 33 -87
43 -161 117 -201 201 -29 62 -31 73 -31 181 0 105 2 120 28 171 56 115 157
200 276 231 82 21 108 21 195 3z m3321 -1239 c380 -81 628 -353 701 -766 19
-113 19 -344 -1 -460 -57 -327 -233 -573 -499 -695 -137 -64 -220 -80 -411
-80 -132 1 -185 5 -235 18 -105 29 -238 99 -307 162 l-62 56 -3 -383 c-3 -379
-3 -384 -27 -436 -46 -101 -121 -145 -251 -146 -76 -1 -91 2 -138 28 -58 32
-94 74 -120 138 -16 40 -17 131 -17 1193 0 1289 -4 1211 72 1290 54 56 112 78
205 78 64 0 87 -5 133 -28 61 -29 106 -81 126 -143 12 -39 29 -65 29 -44 0 18
128 116 195 150 75 37 181 70 266 82 84 12 256 5 344 -14z m-3307 -18 c58 -15
124 -75 153 -140 23 -53 24 -55 29 -548 6 -487 6 -496 29 -553 45 -113 128
-191 238 -223 79 -23 258 -15 334 14 72 29 128 77 163 142 57 105 58 116 65
625 6 457 7 471 28 510 46 85 116 130 221 141 133 14 244 -54 278 -173 15 -51
16 -108 11 -538 -6 -525 -9 -559 -69 -702 -114 -277 -369 -460 -734 -529 -125
-23 -324 -15 -455 19 -332 86 -554 298 -641 612 -21 77 -22 99 -26 604 -3 466
-1 529 13 576 47 147 183 209 363 163z"/>
<path d="M4568 3687 c-204 -70 -328 -256 -328 -491 1 -252 169 -458 408 -498
151 -25 315 24 415 127 66 66 102 132 127 231 34 130 21 280 -34 400 -29 63
-113 155 -174 191 -114 67 -286 83 -414 40z"/>
</g>
</svg>
